PathFileType	4	(X/Y/Z)	G:\TennisProject\Miami_Dimitrov_Sinner_masked_Sports2D\Miami_Dimitrov_Sinner_masked_Sports2D_m_person01.trc
DataRate	CameraRate	NumFrames	NumMarkers	Units	OrigDataRate	OrigDataStartFrame	OrigNumFrames
25	25	13	22	m	25	124	499
Frame#	Time	Hip			RHip			RKnee			RAnkle			RBigToe			RSmallToe			RHeel			LHip			LKnee			LAnkle			LBigToe			LSmallToe			LHeel			Neck			Head			Nose			RShoulder			RElbow			RWrist			LShoulder			LElbow			LWrist		
		X1	Y1	Z1	X2	Y2	Z2	X3	Y3	Z3	X4	Y4	Z4	X5	Y5	Z5	X6	Y6	Z6	X7	Y7	Z7	X8	Y8	Z8	X9	Y9	Z9	X10	Y10	Z10	X11	Y11	Z11	X12	Y12	Z12	X13	Y13	Z13	X14	Y14	Z14	X15	Y15	Z15	X16	Y16	Z16	X17	Y17	Z17	X18	Y18	Z18	X19	Y19	Z19	X20	Y20	Z20	X21	Y21	Z21	X22	Y22	Z22
124	4.96	8.506850221721228	-8.51665921581977	0.0	8.676136969055365	-8.550084003314646	0.0	8.256827909811575	-9.296070026073682	0.0	8.176349428115806	-10.198171115554638	0.0	7.767944846385657	-10.460447681031958	0.0	7.923680764140213	-10.434287927316337	0.0	8.190038538721291	-10.363461063151396	0.0	8.318863703173562	-8.586873589912896	0.0	7.888504348896728	-9.534779087258638	0.0	8.090270176595556	-10.594974490731962	0.0	7.80914735706096	-10.926996079164887	0.0	7.843029315013227	-10.954521495085437	0.0	8.25876322718893	-10.758717958609845	0.0	8.067854928160044	-7.011991489228917	0.0	7.786858473952056	-6.547580813696634	0.0	7.830998314715971	-6.900122900579044	0.0	8.504541509527415	-6.959631844688557	0.0	9.135056481762286	-6.924765077309054	0.0	9.766409703752382	-6.702192414490578	0.0	7.929546396307837	-7.373234353188938	0.0	8.321106365933822	-7.754734488668871	0.0	8.712923792477817	-7.920917711378036	0.0
125	5.0	8.498419905875183	-8.559910183644417	0.0	8.69886563654436	-8.578633999122374	0.0	8.245623629587227	-9.273364814354721	0.0	8.225919860121836	-10.22857860024586	0.0	7.8334811648085605	-10.419890279545388	0.0	7.994034394225902	-10.401780019277863	0.0	8.259389856808827	-10.403446978301348	0.0	8.290655643702557	-8.644718930338689	0.0	7.81693070597974	-9.559746697223064	0.0	7.830816914809014	-10.62523208968176	0.0	7.560160951792492	-10.787813236909622	0.0	7.585634263781295	-10.873165373835501	0.0	7.936700210052997	-10.805446025795169	0.0	8.039418675581631	-7.093484908962741	0.0	7.75979387725867	-6.608386384482545	0.0	7.8168822387782235	-6.956350977832949	0.0	8.461225833307465	-7.025860377343518	0.0	9.067786177940151	-6.968054795969421	0.0	9.653883257828978	-6.7177996722717594	0.0	7.879882512572165	-7.474636161447419	0.0	8.258656739310782	-7.901360861658333	0.0	8.582700604557672	-8.158398500488122	0.0
126	5.04	8.48764054188747	-8.62936662302933	0.0	8.696204419757494	-8.61744591385327	0.0	8.218505247028103	-9.28217935918975	0.0	8.317489312143731	-10.254842283684464	0.0	7.9655346555807585	-10.387836044807516	0.0	8.104781465839658	-10.37481045538886	0.0	8.373276010016365	-10.43204456164634	0.0	8.29559610900007	-8.711190908176075	0.0	7.737786655609999	-9.62573290183296	0.0	7.588361975879129	-10.654793532925048	0.0	7.314775838002623	-10.737021107319293	0.0	7.329551761780821	-10.842386443164024	0.0	7.657366667770842	-10.806829595365757	0.0	8.01723582739334	-7.2226351338519725	0.0	7.718538772165617	-6.708434820661474	0.0	7.7968566866841575	-7.069124921629527	0.0	8.418533064519375	-7.141639250740011	0.0	9.014159247199478	-7.067251175980077	0.0	9.561712520728449	-6.812528991916914	0.0	7.822888833499391	-7.609537848244001	0.0	8.155286484510132	-8.071418917542193	0.0	8.407252582234923	-8.498145213202907	0.0
127	5.08	8.465889199844629	-8.744574958143309	0.0	8.673283163246651	-8.712532665187398	0.0	8.196471418888432	-9.31787104340851	0.0	8.44338180498894	-10.25574084066449	0.0	8.155556403760958	-10.388363927036028	0.0	8.274984063698433	-10.384988367543723	0.0	8.516409365947895	-10.435075447392279	0.0	8.287149565958892	-8.811911792280164	0.0	7.65441803179206	-9.709814594621912	0.0	7.406447545772685	-10.700938621241297	0.0	7.143087190830158	-10.867294738152593	0.0	7.12676358308921	-10.945027903674255	0.0	7.472941999327085	-10.82427186757472	0.0	7.990733986200119	-7.376212340226823	0.0	7.695899882334849	-6.838723892836495	0.0	7.764707340650043	-7.222796186713342	0.0	8.392284510439593	-7.299002911264689	0.0	8.981650516884253	-7.220110741551068	0.0	9.525330380405594	-6.973376592922798	0.0	7.767844363115475	-7.773442639583152	0.0	8.036458247049385	-8.27662089767926	0.0	8.21620361770388	-8.877213631920633	0.0
128	5.12	8.42980773461804	-8.895484684836635	0.0	8.65128501959933	-8.857176158723236	0.0	8.204356005475002	-9.356210810839698	0.0	8.585630054221516	-10.240288571503346	0.0	8.367746612204192	-10.402882053798297	0.0	8.47868471964952	-10.40832235062478	0.0	8.677901160911174	-10.421767261123943	0.0	8.245894258778836	-8.954568283091247	0.0	7.563457343760806	-9.772120455504753	0.0	7.316724729019753	-10.765466735925902	0.0	7.07464861728847	-11.049383641044285	0.0	7.035204113999046	-11.086775060403571	0.0	7.388925933347965	-10.904984141680867	0.0	7.969255558284828	-7.5381083453709055	0.0	7.691756117628621	-6.9797230403528046	0.0	7.743046895794424	-7.387399855558346	0.0	8.387291420110525	-7.475302290380417	0.0	8.983834578980662	-7.411735599041501	0.0	9.563309172713796	-7.181609934783949	0.0	7.724560676199413	-7.94564236025489	0.0	7.926663979947562	-8.506635342196965	0.0	8.011790415551364	-9.206549033536387	0.0
129	5.16	8.403707879909273	-9.029404859777483	0.0	8.656077501232193	-8.984784056530552	0.0	8.24138111379412	-9.37976122201519	0.0	8.727823328303085	-10.230608711350145	0.0	8.565657914988126	-10.407900544797647	0.0	8.678748087920686	-10.410856070304188	0.0	8.850086894689275	-10.4051013233646	0.0	8.21873512054958	-9.093165671134336	0.0	7.473331384112551	-9.7971390104416	0.0	7.3010411137601015	-10.832836375935177	0.0	7.061067719973347	-11.094508702600335	0.0	7.031864282077357	-11.114899482284509	0.0	7.374213613784039	-11.009740628889471	0.0	7.978131972892336	-7.684609335297635	0.0	7.699823044248112	-7.103378426451625	0.0	7.758742767418499	-7.53016797788032	0.0	8.405014348662439	-7.631731656738347	0.0	9.028220871130046	-7.600920535377455	0.0	9.672211614595053	-7.391416860310576	0.0	7.704806199372091	-8.08523490206877	0.0	7.842320471689285	-8.71687048591008	0.0	7.803791128687539	-9.425325316526846	0.0
130	5.2	8.433151709467017	-9.102149320948563	0.0	8.705222088071672	-9.055192367598597	0.0	8.314940383184338	-9.403553648455658	0.0	8.858816374561401	-10.231329168680656	0.0	8.744355921363308	-10.397169217991003	0.0	8.870946159085797	-10.392277584724315	0.0	9.004080887155924	-10.391887558450355	0.0	8.25249874585121	-9.17514049722266	0.0	7.420246830153448	-9.812188564273029	0.0	7.309512242352884	-10.88119174217269	0.0	7.059314965343182	-11.037704763117711	0.0	7.057900533705837	-11.102657930555095	0.0	7.384335762293267	-11.061720768544896	0.0	8.031519917399569	-7.779844447801904	0.0	7.75469179943542	-7.179896703677582	0.0	7.824852839844228	-7.614132395538037	0.0	8.46260544095251	-7.734106395095529	0.0	9.120577079851394	-7.747366936680881	0.0	9.821415578905675	-7.564580165850647	0.0	7.725604652169868	-8.163928532892298	0.0	7.809053182934779	-8.866111209244005	0.0	7.648122195471713	-9.488337402965467	0.0
131	5.24	8.53461072611218	-9.116740719707746	0.0	8.80044555389869	-9.076253145521006	0.0	8.443491543275588	-9.435746936804488	0.0	8.960479794852946	-10.231851925336782	0.0	8.884770604595587	-10.393675294018237	0.0	9.020748126612672	-10.383206979902988	0.0	9.096921278520075	-10.383122048940386	0.0	8.33855277959633	-9.18899773772947	0.0	7.441361638689454	-9.839193362881865	0.0	7.308515571925497	-10.886879241550549	0.0	7.021550840202896	-10.995913040983517	0.0	7.081069597197264	-11.187653950892416	0.0	7.383586366503189	-11.042143361465754	0.0	8.137854893339522	-7.808687867640862	0.0	7.884719851628863	-7.195641369571233	0.0	7.936653225035862	-7.622800037110549	0.0	8.580768482017588	-7.7746282671543225	0.0	9.257491394762413	-7.83485045434321	0.0	9.965986791768094	-7.688065507178004	0.0	7.811718601586431	-8.178470580133311	0.0	7.860191215147731	-8.921249503818455	0.0	7.609884138808578	-9.359585592668136	0.0
132	5.28	8.682305286472328	-9.09362283404063	0.0	8.933339815636723	-9.05822198177791	0.0	8.615430264512122	-9.444435173115604	0.0	9.007951412408607	-10.2364833390672	0.0	8.938373676620571	-10.421992677520548	0.0	9.066779020503725	-10.405171491367758	0.0	9.108497892452057	-10.393427119663361	0.0	8.458171382073282	-9.149488919993049	0.0	7.5655303295445675	-9.854508624361255	0.0	7.321548224430571	-10.828567771028732	0.0	6.985054059624118	-10.956513085166636	0.0	7.104978861128135	-11.231381267053235	0.0	7.3782032110196445	-10.972663823620472	0.0	8.306147720694998	-7.780244409463089	0.0	8.07177944370565	-7.155020694815646	0.0	8.091935790253086	-7.56879011026017	0.0	8.75676633888784	-7.7637546051932835	0.0	9.422065026704765	-7.865456902156178	0.0	10.090415975495954	-7.756907446012776	0.0	7.979369992764059	-8.134566036763767	0.0	8.014032569699632	-8.868678833748415	0.0	7.714298306967405	-9.08762971047431	0.0
133	5.32	8.852116553454346	-9.045028591702295	0.0	9.099354260719	-9.009701027330724	0.0	8.788311286783173	-9.417231448383658	0.0	9.000911765893182	-10.267722822985048	0.0	8.891689108382424	-10.467440508234196	0.0	9.021618561557963	-10.443189772574163	0.0	9.062075854038794	-10.440330012442676	0.0	8.62269828836501	-9.080070684757102	0.0	7.7991282469151395	-9.831368410200954	0.0	7.403358122828519	-10.72048123780943	0.0	7.090306591855665	-10.869800207513645	0.0	7.1891998609546865	-11.065131798019248	0.0	7.421823046637303	-10.875865560205316	0.0	8.529590157696887	-7.712095608061331	0.0	8.294374010923566	-7.074705586410167	0.0	8.30156641155164	-7.480351543549648	0.0	8.967419854604765	-7.717339524483216	0.0	9.602028892261226	-7.853444812984205	0.0	10.2164311505144	-7.776406032286042	0.0	8.211280973204072	-8.048540453910311	0.0	8.251773364719805	-8.736454873350949	0.0	7.936622260538175	-8.796839951668856	0.0
134	5.36	9.041619740254363	-8.986275444258805	0.0	9.292529065973431	-8.955005259274163	0.0	8.92583262931766	-9.400150263718102	0.0	8.979137668619945	-10.3323174435351	0.0	8.805244082875715	-10.498613314538009	0.0	8.973045554287381	-10.472312067638763	0.0	9.012079678495441	-10.512238218701253	0.0	8.831034657801201	-9.012261620751373	0.0	8.07402231063023	-9.787738150516972	0.0	7.575074616681012	-10.634483738932706	0.0	7.352944516320114	-10.787302422636387	0.0	7.38656463706779	-10.859892989365065	0.0	7.563560831332595	-10.810890713369513	0.0	8.780590378325924	-7.632734934205963	0.0	8.546719183184456	-6.98684210611529	0.0	8.55526424049183	-7.393873486594347	0.0	9.19274557019208	-7.6571028106699215	0.0	9.803446171715656	-7.823079521727738	0.0	10.360619775990386	-7.7662420842413535	0.0	8.465580170595118	-7.952222883196795	0.0	8.520591716493026	-8.589556210646192	0.0	8.211002227542798	-8.573470642839418	0.0
135	5.4	9.248111681484792	-8.932524188405703	0.0	9.495216811471614	-8.914982654980415	0.0	9.02307328624878	-9.41917498449014	0.0	8.979860058049358	-10.395597747847749	0.0	8.74781878950148	-10.510289924601386	0.0	8.945014748328168	-10.496756890619094	0.0	8.99768248560015	-10.577863935882654	0.0	9.050023591977975	-8.960496893556897	0.0	8.303271353968361	-9.736674252782043	0.0	7.839048231149381	-10.618279777265736	0.0	7.629462725628966	-10.795391983412884	0.0	7.641769619290145	-10.833807039222224	0.0	7.82668568354418	-10.82069892231099	0.0	9.029526975349627	-7.566259055459246	0.0	8.811419679749118	-6.919547970262292	0.0	8.817227110034997	-7.330802318990073	0.0	9.426703290969632	-7.6050881796834435	0.0	10.040478387040503	-7.796869017322737	0.0	10.512282561606751	-7.743977431183574	0.0	8.71177956120806	-7.865821781763002	0.0	8.76335529915199	-8.48157455013866	0.0	8.467056450689713	-8.41954978083039	0.0
136	5.44	9.468179273919835	-8.880830697714918	0.0	9.700291063063512	-8.88091870754998	0.0	9.11119747781052	-9.433180043786011	0.0	9.009235473570913	-10.394829853762063	0.0	8.728466625867695	-10.512750260694375	0.0	8.885803666555788	-10.519784300960891	0.0	9.02196720570693	-10.589577820220192	0.0	9.271371982589558	-8.908042306696526	0.0	8.502799097548264	-9.648269254742099	0.0	8.222798471199653	-10.617859538651535	0.0	7.892576657426146	-10.856519841734974	0.0	7.9285749512065555	-10.904694965689867	0.0	8.24579960819984	-10.835218025335609	0.0	9.267767812966351	-7.5096006647830755	0.0	9.066643744233009	-6.867621231458182	0.0	9.069883446019826	-7.278134453517527	0.0	9.67294042743356	-7.568339488181372	0.0	10.31383884947276	-7.787428358919856	0.0	10.648197875780854	-7.720682040988742	0.0	8.946530718905375	-7.78684349187658	0.0	8.959423331951719	-8.409287035898807	0.0	8.686181220940542	-8.302682535504028	0.0
